<?xml version="1.0" encoding="utf-8"?>
<!-- Generator: Adobe Illustrator 16.0.0, SVG Export Plug-In . SVG Version: 6.00 Build 0)  -->
<!DOCTYPE svg PUBLIC "-//W3C//DTD SVG 1.1//EN" "http://www.w3.org/Graphics/SVG/1.1/DTD/svg11.dtd">
<svg version="1.1" id="Layer_1" xmlns="http://www.w3.org/2000/svg" xmlns:xlink="http://www.w3.org/1999/xlink" x="0px" y="0px"
	 width="212px" height="52.25px" viewBox="0 0 212 52.25" enable-background="new 0 0 212 52.25" xml:space="preserve">
<text transform="matrix(1 0 0 1 -1.5532 40.5488)" fill="#10A9B2" font-family="'Outfit-Medium'" font-size="54.3496">k</text>
<text transform="matrix(1 0 0 1 55.3398 40.5479)" fill="#10A9B2" font-family="'Outfit-Medium'" font-size="54.3496">mpass</text>
<text transform="matrix(1 0 0 1 25.4468 40.5479)" display="none" font-family="'Outfit-Medium'" font-size="54.3496">o</text>
<g>
	<path fill="#12A9B3" d="M52.864,20.237c-0.53-0.907-1.141-1.734-1.838-2.472l-1.229,1.229c0.562,0.618,1.052,1.308,1.477,2.055
		c1.044,1.806,1.565,3.853,1.565,6.125c0,2.351-0.521,4.462-1.565,6.326c-1.034,1.87-2.44,3.347-4.214,4.422
		c-0.851,0.521-1.758,0.917-2.713,1.181c-0.433,0.128-0.883,0.224-1.34,0.288c-0.186,0.033-0.378,0.058-0.571,0.072l1.502,1.469
		c0.176-0.032,0.353-0.071,0.521-0.121c0.426-0.104,0.843-0.224,1.244-0.376c0.779-0.281,1.534-0.634,2.248-1.067
		c2.063-1.229,3.701-2.897,4.913-5c1.219-2.095,1.821-4.479,1.821-7.136C54.685,24.652,54.083,22.316,52.864,20.237 M35.012,37.92
		c-1.799-1.075-3.211-2.544-4.254-4.391c-1.036-1.845-1.558-3.948-1.558-6.3c0-2.312,0.521-4.375,1.558-6.181
		c1.042-1.814,2.455-3.251,4.254-4.311c1.79-1.06,3.805-1.589,6.037-1.589c2.23,0,4.237,0.529,6.011,1.589
		c0.225,0.137,0.442,0.273,0.658,0.426c0.33,0.216,0.642,0.457,0.94,0.722c0.104,0.08,0.208,0.168,0.305,0.265l1.228-1.22
		c-0.096-0.088-0.201-0.176-0.305-0.265c-0.297-0.257-0.618-0.498-0.947-0.73c-0.313-0.225-0.643-0.441-0.987-0.643
		c-2.054-1.212-4.358-1.814-6.902-1.814c-2.585,0-4.905,0.603-6.969,1.814c-2.054,1.22-3.691,2.866-4.912,4.944
		c-1.212,2.08-1.813,4.415-1.813,6.992c0,2.625,0.601,4.994,1.813,7.112c1.221,2.117,2.858,3.796,4.912,5.024
		c2.064,1.235,4.383,1.854,6.969,1.854c0.505,0,0.994-0.023,1.476-0.08l-1.646-1.604C38.712,39.519,36.753,38.98,35.012,37.92"/>
	<path fill="#12A9B3" d="M48.962,18.151l-8.694,8.684l0.844,0.843l6.952,6.918h-2.24l-5.835-5.803l-0.835-0.835l-2.006,2.006
		l-0.281-0.288l-0.835-0.843l11.687-11.671l1.22-1.228c0.329,0.232,0.65,0.473,0.947,0.73c0.104,0.088,0.209,0.176,0.305,0.265
		L48.962,18.151z"/>
	<polygon fill="#12A9B3" points="43.965,34.597 41.723,34.597 38.054,30.898 39.18,29.784 	"/>
	<path fill="#12A9B3" d="M45.703,40.433c-0.401,0.152-0.818,0.272-1.244,0.376c-0.169,0.05-0.345,0.089-0.521,0.121l-1.502-1.469
		L31.753,29.025l9.592-9.511h2.232l-9.561,9.497l10.331,10.09L45.703,40.433z"/>
</g>
<g display="none">
	<path display="inline" fill="#12A9B3" d="M129.863,49.236c-0.529-0.906-1.141-1.733-1.838-2.472l-1.229,1.229
		c0.563,0.618,1.052,1.308,1.477,2.055c1.044,1.806,1.565,3.853,1.565,6.124c0,2.352-0.521,4.463-1.565,6.326
		c-1.034,1.87-2.439,3.347-4.214,4.422c-0.851,0.521-1.758,0.917-2.713,1.181c-0.433,0.128-0.883,0.224-1.34,0.288
		c-0.186,0.033-0.378,0.058-0.571,0.072l1.502,1.469c0.176-0.032,0.353-0.071,0.521-0.121c0.426-0.104,0.843-0.224,1.244-0.376
		c0.779-0.281,1.533-0.634,2.248-1.067c2.063-1.229,3.7-2.897,4.912-5c1.22-2.095,1.822-4.479,1.822-7.137
		C131.686,53.652,131.083,51.316,129.863,49.236 M112.012,66.92c-1.799-1.075-3.211-2.544-4.254-4.391
		c-1.036-1.845-1.558-3.948-1.558-6.301c0-2.311,0.521-4.375,1.558-6.181c1.043-1.813,2.455-3.251,4.254-4.311
		c1.79-1.06,3.805-1.589,6.037-1.589c2.229,0,4.236,0.529,6.011,1.589c0.225,0.137,0.442,0.272,0.658,0.426
		c0.329,0.216,0.642,0.457,0.94,0.722c0.104,0.08,0.207,0.169,0.305,0.266l1.228-1.221c-0.097-0.088-0.2-0.176-0.306-0.265
		c-0.297-0.257-0.617-0.497-0.947-0.729c-0.313-0.225-0.643-0.441-0.986-0.643c-2.055-1.213-4.359-1.814-6.902-1.814
		c-2.586,0-4.905,0.602-6.969,1.814c-2.055,1.22-3.692,2.865-4.913,4.943c-1.212,2.08-1.813,4.416-1.813,6.992
		c0,2.625,0.601,4.994,1.813,7.112c1.221,2.117,2.858,3.796,4.913,5.024c2.063,1.235,4.383,1.854,6.969,1.854
		c0.505,0,0.994-0.023,1.476-0.08l-1.646-1.604C115.712,68.519,113.754,67.98,112.012,66.92"/>
	<path display="inline" fill="#12A9B3" d="M125.963,47.15l-8.694,8.685l0.844,0.843l6.952,6.919h-2.24l-5.836-5.803l-0.835-0.835
		l-2.007,2.006l-0.28-0.288l-0.835-0.843l11.687-11.671l1.22-1.228c0.33,0.232,0.65,0.473,0.947,0.729
		c0.105,0.089,0.209,0.177,0.306,0.265L125.963,47.15z"/>
	<polygon display="inline" fill="#12A9B3" points="120.965,63.597 118.723,63.597 115.054,59.898 116.18,58.784 	"/>
	<path display="inline" fill="#12A9B3" d="M122.703,69.433c-0.4,0.152-0.818,0.272-1.244,0.376c-0.169,0.05-0.346,0.089-0.521,0.121
		l-1.502-1.469l-10.683-10.436l9.592-9.512h2.231l-9.561,9.497l10.331,10.09L122.703,69.433z"/>
</g>
</svg>
